<?xml version="1.0" encoding="utf-8"?>
<!-- Generator: Adobe Illustrator 23.0.1, SVG Export Plug-In . SVG Version: 6.00 Build 0)  -->
<svg version="1.1" id="Layer_1" xmlns="http://www.w3.org/2000/svg" xmlns:xlink="http://www.w3.org/1999/xlink" x="0px" y="0px"
	 viewBox="0 0 1000 562" style="enable-background:new 0 0 1000 562;" xml:space="preserve">
<style type="text/css">
	.st0{fill:none;stroke:#8C41C0;}
	.st1{fill:none;stroke:#A03AB7;}
	.st2{fill:none;stroke:#3B5DE8;}
	.st3{fill:none;stroke:#624FD5;}
	.st4{fill:none;stroke:#7748CA;}
	.st5{fill:none;stroke:#0062FF;}
	.st6{fill:none;stroke:#4F56DE;}
	.st7{fill:none;stroke:#BE2FA8;}
	.st8{display:none;fill:#FFFFFF;}
	.st9{fill:none;stroke:#A31F34;}
	.st10{fill:none;stroke:#AB2457;}
	.st11{fill:none;stroke:#B12870;}
	.st12{fill:none;stroke:#B62B86;}
</style>
<g>
	<g>
		<line class="st0" x1="851" y1="360.9" x2="1001" y2="360.9"/>
		<line class="st0" x1="587" y1="360.9" x2="831" y2="360.9"/>
		<line class="st0" x1="195.1" y1="360.9" x2="413" y2="360.9"/>
		<line class="st0" x1="49.4" y1="360.9" x2="146.8" y2="360.9"/>
		<line class="st0" x1="0" y1="360.9" x2="9.4" y2="360.9"/>
		<line class="st1" x1="985.4" y1="421" x2="1001" y2="421"/>
		<line class="st1" x1="945.4" y1="421" x2="985.4" y2="421"/>
		<line class="st1" x1="851" y1="421" x2="945.4" y2="421"/>
		<line class="st1" x1="510" y1="421" x2="831" y2="421"/>
		<line class="st1" x1="180" y1="421" x2="490" y2="421"/>
		<line class="st1" x1="0" y1="421" x2="160" y2="421"/>
		<line class="st2" x1="912" y1="101.4" x2="1001" y2="101.4"/>
		<line class="st2" x1="738.7" y1="101.4" x2="766" y2="101.4"/>
		<line class="st2" x1="268.8" y1="101.4" x2="691.1" y2="101.4"/>
		<line class="st2" x1="0" y1="101.4" x2="73.2" y2="101.4"/>
		<line class="st3" x1="882.7" y1="241.7" x2="1001" y2="241.7"/>
		<line class="st3" x1="599" y1="241.7" x2="696.6" y2="241.7"/>
		<line class="st3" x1="223.9" y1="241.7" x2="394.4" y2="241.7"/>
		<path class="st3" d="M223.9,241.7"/>
		<path class="st3" d="M118.1,241.7"/>
		<line class="st3" x1="0" y1="241.7" x2="118.1" y2="241.7"/>
		<line class="st4" x1="851" y1="280.7" x2="1001" y2="280.7"/>
		<line class="st4" x1="610.7" y1="280.7" x2="696.6" y2="280.7"/>
		<line class="st4" x1="243.1" y1="280.7" x2="389.5" y2="280.7"/>
		<line class="st4" x1="0" y1="280.7" x2="98.9" y2="280.7"/>
		<line class="st5" x1="852" y1="61.4" x2="1001" y2="61.4"/>
		<line class="st5" x1="651.4" y1="61.4" x2="832" y2="61.4"/>
		<line class="st5" x1="582.2" y1="61.4" x2="604.9" y2="61.4"/>
		<line class="st5" x1="274.9" y1="61.4" x2="417.8" y2="61.4"/>
		<line class="st5" x1="0" y1="61.4" x2="67" y2="61.4"/>
		<line class="st6" x1="921.7" y1="201.6" x2="1001" y2="201.6"/>
		<line class="st6" x1="565" y1="201.6" x2="724.6" y2="201.6"/>
		<line class="st6" x1="367.2" y1="201.6" x2="435.6" y2="201.6"/>
		<line class="st6" x1="0" y1="201.6" x2="328.9" y2="201.6"/>
		<line class="st2" x1="930.4" y1="141.5" x2="1001" y2="141.5"/>
		<line class="st2" x1="268.8" y1="141.5" x2="747.6" y2="141.5"/>
		<line class="st2" x1="0" y1="141.5" x2="99.5" y2="141.5"/>
		<line class="st4" x1="851" y1="340.9" x2="1001" y2="340.9"/>
		<line class="st4" x1="599.7" y1="340.9" x2="831" y2="340.9"/>
		<line class="st4" x1="225.2" y1="340.9" x2="400" y2="340.9"/>
		<line class="st4" x1="84.1" y1="340.9" x2="116.8" y2="340.9"/>
		<line class="st4" x1="0" y1="340.9" x2="44.1" y2="340.9"/>
		<line class="st5" x1="852" y1="21.3" x2="1001" y2="21.3"/>
		<line class="st5" x1="832" y1="21.3" x2="852" y2="21.3"/>
		<line class="st5" x1="601.9" y1="21.3" x2="832" y2="21.3"/>
		<line class="st5" x1="264.9" y1="21.3" x2="398.1" y2="21.3"/>
		<line class="st5" x1="0" y1="21.3" x2="77.1" y2="21.3"/>
		<line class="st4" x1="851" y1="300.8" x2="1001" y2="300.8"/>
		<line class="st4" x1="828.2" y1="300.8" x2="831" y2="300.8"/>
		<line class="st4" x1="610.7" y1="300.8" x2="705.8" y2="300.8"/>
		<line class="st4" x1="243.5" y1="300.8" x2="389.3" y2="300.8"/>
		<line class="st4" x1="0" y1="300.8" x2="98.5" y2="300.8"/>
		<line class="st1" x1="921.4" y1="481.1" x2="1001" y2="481.1"/>
		<line class="st1" x1="524.9" y1="481.1" x2="756.6" y2="481.1"/>
		<line class="st1" x1="239.9" y1="481.1" x2="474.1" y2="481.1"/>
		<line class="st1" x1="0" y1="481.1" x2="103.2" y2="481.1"/>
		<line class="st7" x1="929" y1="541.2" x2="1001" y2="541.2"/>
		<line class="st7" x1="565" y1="541.2" x2="749" y2="541.2"/>
		<line class="st7" x1="251.5" y1="541.2" x2="434" y2="541.2"/>
		<line class="st7" x1="0" y1="541.2" x2="91.5" y2="541.2"/>
		<line class="st7" x1="928.6" y1="501.1" x2="1001" y2="501.1"/>
		<line class="st7" x1="551.1" y1="501.1" x2="749.4" y2="501.1"/>
		<line class="st7" x1="249.3" y1="501.1" x2="447.9" y2="501.1"/>
		<line class="st7" x1="0" y1="501.1" x2="93.7" y2="501.1"/>
		<line class="st7" x1="922.2" y1="561.2" x2="1001" y2="561.2"/>
		<line class="st7" x1="562" y1="561.2" x2="755.8" y2="561.2"/>
		<line class="st7" x1="244.8" y1="561.2" x2="437" y2="561.2"/>
		<line class="st7" x1="0" y1="561.2" x2="98.2" y2="561.2"/>
		<line class="st0" x1="851" y1="380.9" x2="1001" y2="380.9"/>
		<line class="st0" x1="566.4" y1="380.9" x2="831" y2="380.9"/>
		<line class="st0" x1="180" y1="380.9" x2="433.6" y2="380.9"/>
		<line class="st0" x1="14.7" y1="380.9" x2="160" y2="380.9"/>
		<line class="st1" x1="950.7" y1="441" x2="1001" y2="441"/>
		<line class="st1" x1="910.7" y1="441" x2="950.7" y2="441"/>
		<line class="st1" x1="882.7" y1="441" x2="910.7" y2="441"/>
		<line class="st1" x1="510" y1="441" x2="795.3" y2="441"/>
		<line class="st1" x1="180" y1="441" x2="490" y2="441"/>
		<line class="st1" x1="0" y1="441" x2="160" y2="441"/>
		<line class="st2" x1="924.1" y1="121.5" x2="1001" y2="121.5"/>
		<line class="st2" x1="258.2" y1="121.5" x2="734.4" y2="121.5"/>
		<line class="st2" x1="0" y1="121.5" x2="83" y2="121.5"/>
		<line class="st6" x1="929.2" y1="181.6" x2="1001" y2="181.6"/>
		<line class="st6" x1="510" y1="181.6" x2="748.8" y2="181.6"/>
		<line class="st6" x1="488.8" y1="181.6" x2="510" y2="181.6"/>
		<line class="st6" x1="334.5" y1="181.6" x2="488.8" y2="181.6"/>
		<line class="st6" x1="0" y1="181.6" x2="296.1" y2="181.6"/>
		<line class="st3" x1="851" y1="260.7" x2="1001" y2="260.7"/>
		<line class="st3" x1="607.2" y1="260.7" x2="694" y2="260.7"/>
		<line class="st3" x1="237" y1="260.7" x2="393.5" y2="260.7"/>
		<path class="st3" d="M237,260.7"/>
		<path class="st3" d="M105,260.7"/>
		<line class="st3" x1="0" y1="260.7" x2="105" y2="260.7"/>
		<line class="st2" x1="890.2" y1="81.4" x2="1001" y2="81.4"/>
		<line class="st2" x1="695.4" y1="81.4" x2="787.7" y2="81.4"/>
		<line class="st2" x1="561.1" y1="81.4" x2="647.8" y2="81.4"/>
		<line class="st2" x1="273.9" y1="81.4" x2="438.9" y2="81.4"/>
		<line class="st2" x1="0" y1="81.4" x2="68.1" y2="81.4"/>
		<line class="st5" x1="852" y1="1.2" x2="1001" y2="1.2"/>
		<line class="st5" x1="832" y1="1.2" x2="852" y2="1.2"/>
		<line class="st5" x1="604.9" y1="1.2" x2="832" y2="1.2"/>
		<line class="st5" x1="252.4" y1="1.2" x2="393.5" y2="1.2"/>
		<line class="st5" x1="0" y1="1.2" x2="89.6" y2="1.2"/>
		<line class="st3" x1="907.7" y1="221.6" x2="1001" y2="221.6"/>
		<line class="st3" x1="585.9" y1="221.6" x2="705.5" y2="221.6"/>
		<line class="st3" x1="400" y1="221.6" x2="414.2" y2="221.6"/>
		<line class="st3" x1="190.5" y1="221.6" x2="361.6" y2="221.6"/>
		<path class="st3" d="M190.5,221.6"/>
		<path class="st3" d="M151.5,221.6"/>
		<line class="st3" x1="0" y1="221.6" x2="151.5" y2="221.6"/>
		<line class="st1" x1="916" y1="461.1" x2="1001" y2="461.1"/>
		<line class="st1" x1="510" y1="461.1" x2="770.1" y2="461.1"/>
		<line class="st1" x1="221.4" y1="461.1" x2="490" y2="461.1"/>
		<line class="st1" x1="0" y1="461.1" x2="121.6" y2="461.1"/>
		<line class="st7" x1="931" y1="521.2" x2="1001" y2="521.2"/>
		<line class="st7" x1="561.8" y1="521.2" x2="747" y2="521.2"/>
		<line class="st7" x1="252.9" y1="521.2" x2="437.2" y2="521.2"/>
		<line class="st7" x1="0" y1="521.2" x2="90.1" y2="521.2"/>
		<line class="st6" x1="932" y1="161.5" x2="1001" y2="161.5"/>
		<line class="st6" x1="301.7" y1="161.5" x2="746" y2="161.5"/>
		<line class="st6" x1="212.1" y1="161.5" x2="263.4" y2="161.5"/>
		<line class="st6" x1="129.9" y1="161.5" x2="212.1" y2="161.5"/>
		<line class="st6" x1="0" y1="161.5" x2="129.9" y2="161.5"/>
		<line class="st0" x1="980.1" y1="401" x2="1001" y2="401"/>
		<line class="st0" x1="851" y1="401" x2="980.1" y2="401"/>
		<line class="st0" x1="521.2" y1="401" x2="831" y2="401"/>
		<line class="st0" x1="180" y1="401" x2="478.8" y2="401"/>
		<line class="st0" x1="0" y1="401" x2="160" y2="401"/>
		<line class="st5" x1="852" y1="41.3" x2="1001" y2="41.3"/>
		<line class="st5" x1="832" y1="41.3" x2="852" y2="41.3"/>
		<line class="st5" x1="608.9" y1="41.3" x2="832" y2="41.3"/>
		<line class="st5" x1="272" y1="41.3" x2="405.3" y2="41.3"/>
		<line class="st5" x1="0" y1="41.3" x2="69.9" y2="41.3"/>
		<line class="st4" x1="851" y1="320.8" x2="1001" y2="320.8"/>
		<line class="st4" x1="808.8" y1="320.8" x2="831" y2="320.8"/>
		<line class="st4" x1="607.2" y1="320.8" x2="724.6" y2="320.8"/>
		<line class="st4" x1="238.1" y1="320.8" x2="392.8" y2="320.8"/>
		<line class="st4" x1="0" y1="320.8" x2="78.8" y2="320.8"/>
	</g>
	<path class="st8" d="M787.7,81.4c-11.5,7.6-21.2,17.7-28.4,29.6L597.1,35.9C602.2,23.6,605,10.1,605-4c0-58-47-105-105-105
		S395-62,395-4c0,58,47,105,105,105c36.7,0,69-18.8,87.8-47.4l163.1,75.5c-3.2,9.4-4.9,19.4-4.9,29.9"/>
	<path class="st8" d="M746,159c0,10.8,1.8,21.1,5.2,30.7C718.5,197,694,226.1,694,261c0,40.3,32.7,73,73,73
		c27.6,0,51.6-15.3,64-37.9v134.2c-47.1,4.1-84,43.5-84,91.6c0,50.8,41.2,92,92,92s92-41.2,92-92c0-21.9-7.7-42-20.4-57.8
		l138.9-80.2l-10-17.3l-143.6,82.9c-12.7-10-28-16.7-44.8-18.8V251.2c45.7-5.9,81-44.9,81-92.2c0-46.9-34.8-85.8-80-92.1V-6h-20
		v72.3c-16.3,1.2-31.4,6.6-44.3,15.1"/>
	<path class="st8" d="M611,292c0-61.3-49.7-111-111-111c-37.3,0-70.2,18.4-90.4,46.5l-157.6-96.4C266.4,113.3,275,90.7,275,66
		c0-57.4-46.6-104-104-104S67,8.6,67,66s46.6,104,104,104c25.8,0,49.4-9.4,67.6-25l-0.6,1l161.5,98.8c-6.7,14.3-10.5,30.3-10.5,47.2
		c0,57.9,44.4,105.5,101,110.5v74.1c-31.7,4.6-56,31.9-56,64.8c0,36.2,29.3,65.5,65.5,65.5c36.2,0,65.5-29.3,65.5-65.5
		c0-32.6-23.8-59.6-55-64.7v-74.3C566.6,397.5,611,349.9,611,292z"/>
	<path class="st9" d="M100,111.3v-90"/>
	<path class="st10" d="M240,113.5V21.3"/>
	<path class="st10" d="M200,144.3V0"/>
	<path class="st10" d="M200,562v-91.1"/>
	<path class="st9" d="M160,149.6V0"/>
	<path class="st9" d="M160,562v-96.9"/>
	<path class="st9" d="M120,132.5V0"/>
	<path class="st9" d="M120,558.6v-67.8"/>
	<path class="st9" d="M120,562v-3.4"/>
	<path class="st10" d="M220,134.8V0"/>
	<path class="st10" d="M220,562v-74.5"/>
	<path class="st9" d="M140,144.3V0"/>
	<path class="st9" d="M140,562v-89.4"/>
	<path class="st9" d="M180,149.6V0"/>
	<path class="st9" d="M180,562v-97.8"/>
	<path class="st11" d="M519,77.1V0"/>
	<path class="st11" d="M519,380.9V203.3"/>
	<path class="st12" d="M778,313.5v-105"/>
	<path class="st12" d="M778,562v-78.4"/>
	<path class="st7" d="M898,562v-80.9"/>
	<path class="st11" d="M579,21.3V0"/>
	<path class="st11" d="M579,335.6v-88.3"/>
	<path class="st7" d="M838,562V449.6"/>
	<path class="st11" d="M459,69.8V0"/>
	<path class="st11" d="M459,373.6V210.2"/>
	<path class="st12" d="M719,283.5v-45.1"/>
	<path class="st12" d="M719,283.5"/>
	<path class="st12" d="M719,562"/>
	<path class="st11" d="M479,77.1V0"/>
	<path class="st11" d="M479,380.9V201.6"/>
	<path class="st12" d="M739,305.8v-90.5"/>
	<path class="st11" d="M419,21.3V0"/>
	<path class="st11" d="M419,335.6V249"/>
	<path class="st12" d="M679,0"/>
	<path class="st12" d="M679,562"/>
	<path class="st12" d="M639,0"/>
	<path class="st12" d="M639,562"/>
	<path class="st11" d="M539,69.8V0"/>
	<path class="st11" d="M539,373.6V210.2"/>
	<path class="st7" d="M798,304v-86.4"/>
	<path class="st7" d="M798,562v-99.2"/>
	<path class="st11" d="M499,81.4V0"/>
	<path class="st11" d="M499,381.8V201.6"/>
	<path class="st12" d="M758,313.5v-105"/>
	<path class="st11" d="M439,54V0"/>
	<path class="st11" d="M439,360.9V223.4"/>
	<path class="st12" d="M699,0"/>
	<path class="st12" d="M699,562"/>
	<path class="st11" d="M559,54V0"/>
	<path class="st11" d="M559,360.9V223.4"/>
	<path class="st7" d="M818,275.2v-29.7"/>
	<path class="st7" d="M818,562V452.9"/>
	<path class="st7" d="M858,562V452.9"/>
	<path class="st12" d="M619,0"/>
	<path class="st12" d="M619,562"/>
	<path class="st7" d="M878,562V461.1"/>
	<path class="st12" d="M659,0"/>
	<path class="st12" d="M659,562"/>
</g>
</svg>
